<?xml version="1.0" encoding="UTF-8"?>
<!DOCTYPE svg PUBLIC "-//W3C//DTD SVG 1.1//EN" "http://www.w3.org/Graphics/SVG/1.1/DTD/svg11.dtd">
<!-- Creator: CorelDRAW X7 -->
<svg xmlns="http://www.w3.org/2000/svg" xml:space="preserve" width="1000px" height="1000px" version="1.1" style="shape-rendering:geometricPrecision; text-rendering:geometricPrecision; image-rendering:optimizeQuality; fill-rule:evenodd; clip-rule:evenodd"
viewBox="0 0 1000 1000"
 xmlns:xlink="http://www.w3.org/1999/xlink">
 <defs>
  <style type="text/css">
   <![CDATA[
    .str0 {stroke:#2B2A29;stroke-width:0.755906}
    .fil2 {fill:#FEFEFE}
    .fil1 {fill:#0D6EFD}
    .fil0 {fill:#BB0000}
   ]]>
  </style>
 </defs>
 <g id="Слой_x0020_1">
  <metadata id="CorelCorpID_0Corel-Layer"/>
  <g id="_2024581596448">
   <g>
    <rect class="fil0" x="278" y="313" width="264.989" height="12.734"/>
    <rect class="fil0" x="229" y="362" width="313.354" height="12.734"/>
    <rect class="fil0" x="229" y="410" width="313.354" height="12.734"/>
    <rect class="fil0" x="229" y="459" width="313.354" height="12.734"/>
    <rect class="fil0" x="229" y="508" width="313.354" height="12.734"/>
    <rect class="fil0" x="229" y="557" width="313.354" height="12.734"/>
    <path class="fil0" d="M292 101c38,0 68,34 68,76 0,42 -30,75 -68,75 -38,0 -69,-33 -69,-75 0,-42 31,-76 69,-76zm0 12c32,0 58,29 58,64 0,35 -26,64 -58,64 -33,0 -58,-29 -58,-64 0,-35 25,-64 58,-64z"/>
    <path class="fil0" d="M292 177l-62 0c0,-33 21,-61 51,-67l11 67z"/>
    <rect class="fil1" x="517" y="107" width="25.883" height="130.061"/>
    <rect class="fil1" x="457" y="130" width="25.883" height="107.34"/>
    <rect class="fil1" x="397" y="176" width="25.883" height="61.8975"/>
    <path class="fil0" d="M582 642c31,0 38,-16 38,-36l0 -540c0,-21 -15,-37 -33,-37l-408 0c-19,0 -34,16 -34,37l0 540c0,20 15,36 34,36 134,0 268,0 403,0zm9 29l0 0 -10 0 -394 0c-44,0 -70,-30 -70,-78l0 -515c0,-48 26,-78 70,-78l391 0c44,0 71,30 71,78l0 515c0,42 -19,75 -58,78z"/>
   </g>
   <g>
    <rect class="fil2 str0" x="510" y="525" width="349" height="447"/>
    <g>
     <path class="fil0" d="M734 964l11 0 70 0 11 0c23,0 29,-12 29,-28l0 -375c0,-15 -11,-27 -25,-27l-291 0c-14,0 -25,12 -25,27l0 375c0,16 11,28 25,28l195 0zm99 36l0 0 0 0c-2,0 -5,0 -7,0l-90 0 0 0 -191 0c-33,0 -60,-30 -60,-66l0 -371c0,-36 27,-65 60,-65l278 0c33,0 60,29 60,65l0 371c0,32 -21,63 -50,66z"/>
     <path class="fil0" d="M552 574l260 0c2,0 4,2 4,4l0 70c0,3 -2,4 -4,4l-260 0c-3,0 -4,-1 -4,-4l0 -70c0,-2 1,-4 4,-4zm10 10l239 0c1,0 3,2 3,3l0 52c0,2 -2,3 -3,3l-239 0c-1,0 -2,-1 -2,-3l0 -52c0,-1 1,-3 2,-3z"/>
     <rect class="fil0" x="562" y="689" width="61.2232" height="62.793"/>
     <rect class="fil0" x="654" y="690" width="61.2232" height="62.793"/>
     <rect class="fil0" x="745" y="691" width="61.2232" height="62.793"/>
     <rect class="fil0" x="562" y="777" width="61.2232" height="62.793"/>
     <rect class="fil0" x="654" y="778" width="61.2232" height="62.793"/>
     <rect class="fil0" x="745" y="778" width="61.2232" height="62.793"/>
     <rect class="fil0" x="562" y="864" width="61.2232" height="62.793"/>
     <rect class="fil0" x="654" y="865" width="61.2232" height="62.793"/>
     <rect class="fil0" x="745" y="866" width="61.2232" height="62.793"/>
    </g>
   </g>
  </g>
 </g>
</svg>
