<svg xmlns="http://www.w3.org/2000/svg" width="140" height="140"><rect width="100%" height="100%" fill="none"/><g class="currentLayer"><path fill="#bc0404" d="M80.38 100.58c.24 1.107 1.013 1.95 2.32 2.53 5.77 2.55 12.26 1.28 17.03-2.84 1.14-.987 1.687-.702 2.1.75 1.972 6.927-7.287 18.992-18.273 12.961-5.587-3.067-8.005-12.575-7.805-13.275.115-.402-.69-1.314-1.43-.25-.351.504-.022 1.311.118 1.904 1.673 7.367 5.62 13.23 11.84 17.59.477.336.512 1.028.07 1.4l-13.68 11.7c-.243.21-.602.214-.85.01L56.9 121.12c-.35-.274-.314-.815.07-1.04 6.32-3.74 12.35-11.65 12.02-19.35-.017-.32-.228-.594-.53-.69-.75-.24-1.41.27-1.63 1.02-1.63 5.43-4.007 11.283-9.76 13.53-8.944 3.494-19.473-6.993-15.63-14.17.202-.377.654-.526.98-.25 5.36 4.61 15.36 6.92 20.31.17.367-.5.243-.7-.37-.6l-1.61.26c-.323.056-.652-.062-.87-.31-1.63-1.88-2.11-6.49 1.08-7.37.205-.058.28-.309.14-.47-9.82-11.37-31.72-32.83-46.66-15.68-.507.58-.833.49-.98-.27-1.553-8.007-.477-15.323 3.23-21.95 7.64-13.63 21.1-12.82 30.15-1.03C55.567 64.273 61.62 77.31 65 92.03c.065.274.308.468.59.47h3.05c.364.003.635-.336.55-.69-1.027-4.66-2.41-9.183-4.15-13.57-6.4-16.17-11.74-28.8-12.3-43.99-.24-6.54 1.78-10.6 6.36-15.79 3.967-4.507 7.46-9.36 10.48-14.56.167-.287.323-.283.47.01 2.48 4.893 4.903 8.483 7.27 10.77 6.17 5.97 11.74 11.8 10.75 20.59-2.11 18.78-8.53 38.34-14.64 56.21-.173.505.207 1.028.74 1.02h2.61c.338 0 .626-.241.68-.57 2.39-13.75 14.45-52.29 33.85-49 12.81 2.17 18.2 19.55 16.72 30.28-.193 1.367-.753 1.54-1.68.52-14.73-16.09-36.06 6.9-44.78 17.88-.166.217-.13.524.08.69 2.233 1.74 2.69 4.007 1.37 6.8-.367.773-1.113 1.113-2.24 1.02-.248-.019-.446.209-.4.46ZM70.02 5.86c-.04-.065-.133-.07-.18-.01-3.147 4.753-6.577 9.323-10.29 13.71-3.92 4.63-6.11 8.56-5.91 14.2.74 20.25 12.34 38.35 16.86 57.99.087.373.337.567.75.58.308.011.589-.184.69-.48 5.88-17.81 12.11-36.79 14.79-55.36.927-6.447-.92-11.83-5.54-16.15-4.5-4.207-8.223-9.033-11.17-14.48Zm56.8 64.76c.44-10.37-4.85-25.47-16.96-26.57-17.19-1.56-28.04 33.44-30.6 45.99-.487 2.393-.003 2.61 1.45.65 8.72-11.78 29.08-31.83 45.07-19.59.653.507 1 .347 1.04-.48Zm-109.38.98c14.33-11.16 36.92 9.85 45.25 20.25.069.089.175.144.29.15h.26c.139.003.243-.122.21-.25-3.08-12.66-16.7-51.07-35.23-46.32-10.84 2.78-14.89 17.29-13.74 27.14.042.313.272.568.58.64l2.38-1.61Zm24.67 33.26c2.625 9.325 11.377 10.027 14.739 8.654 6.973-2.951 8.911-13.37 8.869-13.514-.042-.144-.786-.623-1.228 0-2.314 3.261-9.447 10.279-22.331 1.496-.599.032-.15 3.006-.049 3.364Zm42.56 15.41c-7.08-4.85-10.67-11.71-11.88-19.85-.07-.456-.989-.42-.989-.42-.642-.087-1.169.361-1.171.75-.026 6.212-4.936 16.01-11.76 19.79-.235.13-.255.46-.04.62l13.06 9.98c.228.175.55.166.78-.02l12.03-10.21c.206-.17.191-.49-.03-.64Zm-7.896-19.932c1.083 6.367 5.8 11.732 7.372 12.513 10.104 5.02 15.825-5.026 16.29-7.645.104-.588.4-1.392.444-3.596.011-.548-.253-.635-.67-.28-6.248 5.312-18.306 6.661-22.04-1.49-.097-.211-1.54-.35-1.396.498Z"/><path fill="#bc0404" d="M57.81 25.04q.46-1.37 1.49-2.39 5.74-5.69 9.98-12.58.75-1.21.78.21l1.58 77.96q.01.73-.33.08-1.35-2.58-2.15-5.32c-4.97-16.97-17.05-40.67-11.35-57.96ZM119.46467711 66.34347252c-15.0231861-6.45796177-27.31488382 11.98175296-36.5513612 18.87633793q-.41478158.30462084-.19221586-.16246444c5.05831182-10.73280753 13.08079437-24.14627844 23.37951724-30.08638478 10.94618677-6.31580538 18.72587035 4.15299742 19.02936906 13.96178841q.02023325.40616112-.33384858.19292653-2.88323774-1.72618475-5.33146066-2.78220365zM21.868 67.007c15.917-5.551 28.172 12.324 37.698 19.415.285.209.351.153.198-.167-5.217-11.039-13.492-24.833-24.113-30.944-11.29-6.496-20.133 4.606-19.626 15.31.013.279.122.374.344.199 1.982-1.565 3.815-3.226 5.499-3.813ZM48.91 111.4c-3.13-1.82-5.45-3.87-5.9-7.51q-.09-.66.4-.2 10.7 10.29 20.23-.78.26-.31.23.1c-.69 7.55-8.6 12.09-14.96 8.39ZM84.5131103 111.49892735c-3.0420983-1.96339968-5.26438892-4.11893317-5.54485449-7.77590451-.03950078-.44231176.09646733-.50306268.4088568-.1812074 6.80671138 7.18386885 13.55550952 7.23735423 20.2443966.16036328.18242682-.19874218.25781115-.16220176.22510762.11057376-1.03989259 7.50980857-9.15220438 11.67755369-15.33350654 7.68617487ZM62.08 121.7a1.01 1.01 0 0 1 .01-1.59q7.56-5.82 8.98-15.4a.5.49 13.1 0 1 .65-.4c.46.16.71 22.05.77 24.1q.04 1.6-1.21.61l-9.2-7.32Z"/></g></svg>