<?xml version="1.0" encoding="UTF-8"?>
<!DOCTYPE svg PUBLIC "-//W3C//DTD SVG 1.1//EN" "http://www.w3.org/Graphics/SVG/1.1/DTD/svg11.dtd">
<!-- Creator: CorelDRAW X7 -->
<svg xmlns="http://www.w3.org/2000/svg" xml:space="preserve" width="1000px" height="1000px" version="1.1" style="shape-rendering:geometricPrecision; text-rendering:geometricPrecision; image-rendering:optimizeQuality; fill-rule:evenodd; clip-rule:evenodd"
viewBox="0 0 1000 1000"
 xmlns:xlink="http://www.w3.org/1999/xlink">
 <defs>
  <style type="text/css">
   <![CDATA[
    .fil1 {fill:#0D6EFD}
    .fil0 {fill:#BB0000}
   ]]>
  </style>
 </defs>
 <g id="Слой_x0020_1">
  <metadata id="CorelCorpID_0Corel-Layer"/>
  <g id="_2136287567712">
   <path class="fil0" d="M194 469c-9,26 -12,25 -20,37 0,0 0,1 0,1 -17,29 91,124 242,211 151,87 287,134 304,105l1 0c11,-11 31,-44 39,-62 -1,-1 -3,-1 -4,-2 -28,21 -158,-26 -301,-108 -135,-79 -237,-163 -244,-200 -3,-2 -6,-3 -8,-4l-9 22z"/>
   <path class="fil0" d="M595 107c-8,23 -5,65 -7,91 -4,32 -7,58 -18,95 -11,36 -11,70 -32,93 -29,30 -44,-1 -63,51l1 43 0 1c0,10 21,31 51,48 30,18 59,26 68,20l0 1c56,-41 61,-25 43,-95 56,-54 32,-52 123,-126 37,-30 186,-93 126,-233 -16,-37 -43,-64 -74,-80l-33 -12c-35,-8 -73,-4 -108,14 -31,15 -61,46 -77,89z"/>
   <path class="fil0" d="M207 407c-4,38 105,132 263,223 159,92 312,145 330,112l45 -85c-2,-32 -72,-97 -176,-166 1,1 1,2 1,2l0 0 0 1 0 2 0 1 0 1 0 1 1 1 0 1c0,0 0,1 0,2l0 0 0 0 0 0c0,1 0,1 0,2l0 0 0 2 0 0 0 1 0 1 0 1 0 1c0,0 0,1 0,2l0 0 -1 0 0 1 0 1 0 1 0 1 0 0 0 1 -1 1 0 1 0 0c0,0 0,1 0,1l0 0 -1 1 0 0 0 1 0 1 -1 0 0 1 0 1 -1 0 0 1 0 0c0,1 -1,1 -1,1l0 0 0 1 -1 1 0 0 -1 1 0 0 -1 1 0 1 -1 0 0 1c-1,0 -1,1 -1,1l-1 0 0 1 -1 1 0 0 -1 1 -1 0 0 1 0 0c-1,0 -1,1 -2,1l0 0 -1 1 -1 1 0 0 -1 1 -1 0 0 1 -1 0 -1 1 -2 1 0 0 -1 1 0 0 -2 1 0 0 -1 1 0 0 -2 1 0 0 -1 1 -1 0 -1 1 0 0 -2 1 -1 1 -1 0 -1 1 -1 0 -1 1 -1 1 -1 1 0 0 -2 1 -1 0 -1 1 -1 1 -1 0 -2 1 -1 1 -1 1 -1 0 -2 1 0 0 -2 2 -1 0 -1 1 -1 1 0 0 -3 1 0 0c-2,2 -4,3 -6,4l0 0c-11,7 -47,-3 -85,-25 -39,-22 -66,-49 -63,-62l-4 -50c1,-1 1,-1 1,-2l0 0 0 0c1,-1 1,-2 1,-3l0 0c0,-1 1,-1 1,-2l0 0 1 -2 0 -1 1 -2 0 0 1 -2 0 0c0,-1 1,-2 1,-2l0 0 1 -2 0 0 0 -1 1 -1 0 0 0 0c0,-1 1,-2 1,-2l0 0 0 0c1,-1 2,-3 2,-4l0 0c1,0 1,-1 1,-1l1 -1 0 -1 1 0 1 -2 0 0 1 -1 0 0c0,-1 1,-1 1,-2l0 0 1 -1 0 0 0 0 1 -1 0 0 1 0 0 -1 0 0 1 -1 1 -1 0 0 1 -1 0 0 1 -1 1 0 0 -1 1 -1 1 0 0 0 1 -1 1 0 0 -1 1 0 0 -1 1 0 1 -1 1 0 0 0 1 -1 0 0 1 -1 1 0 0 0 1 -1 0 0 1 0 0 0c-122,-61 -220,-88 -235,-62 -1,1 -1,2 -1,2l-45 80z"/>
   <ellipse class="fil1" cx="397" cy="924" rx="298" ry="76"/>
  </g>
 </g>
</svg>
