<?xml version="1.0" encoding="UTF-8"?>
<!DOCTYPE svg PUBLIC "-//W3C//DTD SVG 1.1//EN" "http://www.w3.org/Graphics/SVG/1.1/DTD/svg11.dtd">
<!-- Creator: CorelDRAW X7 -->
<svg xmlns="http://www.w3.org/2000/svg" xml:space="preserve" width="1000px" height="1000px" version="1.1" style="shape-rendering:geometricPrecision; text-rendering:geometricPrecision; image-rendering:optimizeQuality; fill-rule:evenodd; clip-rule:evenodd"
viewBox="0 0 1000 1000"
 xmlns:xlink="http://www.w3.org/1999/xlink">
 <defs>
  <style type="text/css">
   <![CDATA[
    .fil4 {fill:none}
    .fil0 {fill:#FEFEFE}
    .fil3 {fill:#0D6EFD}
    .fil1 {fill:#CC0000}
    .fil2 {fill:#CC0000;fill-rule:nonzero}
   ]]>
  </style>
 </defs>
 <g id="Слой_x0020_1">
  <metadata id="CorelCorpID_0Corel-Layer"/>
  <g id="_2024578118368">
   <rect class="fil0" x="202" y="150" width="599" height="829"/>
   <rect class="fil1" x="241" y="90" width="517.475" height="47.2221" rx="6" ry="15"/>
   <path class="fil1" d="M461 0l78 0c8,0 15,7 15,15l0 68c0,9 -7,15 -15,15l-78 0c-8,0 -15,-6 -15,-15l0 -68c0,-8 7,-15 15,-15zm39 19c17,0 30,13 30,30 0,17 -13,31 -30,31 -17,0 -31,-14 -31,-31 0,-17 14,-30 31,-30z"/>
   <path class="fil1" d="M698 154c7,1 13,7 13,15l0 69c0,8 -6,15 -14,15l-394 0c-8,0 -15,-7 -15,-15l0 -69c0,-8 6,-14 14,-15 0,2 -1,3 -1,5l0 68c0,8 7,15 15,15l368 0c8,0 15,-7 15,-15l0 -68c0,-2 -1,-3 -1,-5z"/>
   <path class="fil2" d="M267 396l0 -31 18 0c2,0 4,1 5,3 1,1 2,3 2,5l0 15c0,2 -1,4 -2,6 -1,1 -3,2 -5,2l-18 0zm0 7l18 0c4,0 7,-1 9,-4 3,-3 4,-7 4,-11l0 -15c0,-4 -1,-8 -4,-11 -2,-3 -5,-4 -9,-4l-21 0c-3,0 -4,1 -4,4l0 68c0,1 1,2 1,3 1,1 2,1 3,1 0,0 1,0 2,-1 0,-1 1,-2 1,-3l0 -27z"/>
   <path id="1" class="fil2" d="M317 403l0 -7c0,-2 0,-4 2,-6 1,-1 2,-2 4,-2l6 0c2,0 4,1 5,2 1,2 2,4 2,6l0 7 -19 0zm0 8l22 0c2,0 3,-1 3,-4l0 -11c0,-4 -1,-8 -4,-11 -2,-3 -5,-4 -9,-4l-6 0c-3,0 -6,1 -9,4 -2,3 -4,7 -4,11l0 23c0,4 2,8 4,11 3,2 6,4 9,4l16 0c1,0 1,-1 2,-1 1,-1 1,-2 1,-3 0,-1 0,-2 -1,-3 0,0 -1,-1 -2,-1l-16 0c-2,0 -3,0 -4,-2 -2,-1 -2,-3 -2,-5l0 -8z"/>
   <path id="2" class="fil2" d="M384 430c1,0 2,-1 2,-3 0,-1 -1,-2 -1,-3 -1,0 -1,-1 -2,-1 -1,0 -1,0 -2,1 -1,1 -3,1 -5,2 -1,0 -3,0 -5,0 -1,0 -3,0 -4,0 -1,0 -2,0 -3,0 -1,-1 -2,-1 -2,-2 -1,-1 -1,-2 -1,-2 0,-2 0,-3 1,-3l20 -17c2,-3 3,-5 3,-9l0 0c0,-2 0,-3 -1,-5 0,-1 -1,-3 -3,-4 -1,-1 -3,-2 -5,-2 -1,-1 -3,-1 -6,-1l-1 0c-2,0 -5,0 -7,1 -3,1 -5,2 -6,3 -1,1 -2,2 -2,3 0,1 1,2 1,3 1,1 2,1 2,1 1,0 2,0 2,-1 2,-2 6,-3 10,-3 2,0 5,1 7,2 2,0 3,2 3,4 0,0 0,1 -1,2l-20 17c-1,1 -2,2 -3,4 0,1 0,3 0,5 0,2 0,5 2,7 1,2 3,4 6,4 1,0 2,1 3,1 2,0 3,0 5,0 2,0 5,0 7,-1 2,-1 4,-1 6,-3z"/>
   <path id="3" class="fil2" d="M430 430l0 -46c0,-1 -1,-2 -1,-2 -1,-1 -2,-1 -3,-1 0,0 -1,0 -2,1 0,0 -1,1 -1,2l0 42 -12 0c-2,0 -4,0 -5,-2 -1,-1 -2,-3 -2,-5l0 -35c0,-1 0,-2 0,-2 -1,-1 -2,-1 -3,-1 -1,0 -1,0 -2,1 -1,0 -1,1 -1,2l0 35c0,4 1,8 4,11 2,2 5,4 9,4l15 0c2,0 4,-1 4,-4z"/>
   <path id="4" class="fil2" d="M464 434c1,0 2,-1 2,-1 1,-1 1,-2 1,-3 0,-1 0,-2 -1,-3 0,0 -1,-1 -2,-1l-9 0c-2,0 -4,0 -5,-2 -1,-1 -2,-3 -2,-5l0 -23c0,-2 1,-4 2,-6 1,-1 3,-2 5,-2l9 0c1,0 2,0 2,-1 1,-1 1,-2 1,-3 0,-1 0,-2 -1,-2 0,-1 -1,-1 -2,-1l-9 0c-4,0 -7,1 -9,4 -3,3 -4,7 -4,11l0 23c0,4 1,8 4,11 2,2 5,4 9,4l9 0z"/>
   <path id="5" class="fil2" d="M498 388l0 42c0,1 1,2 1,3 1,1 2,1 3,1 1,0 1,0 2,-1 0,-1 1,-2 1,-3l0 -42 6 0c2,0 3,1 4,2 2,2 2,4 2,6l0 34c0,1 1,2 1,3 1,1 2,1 2,1 1,0 2,0 3,-1 0,-1 1,-2 1,-3l0 -34c0,-4 -2,-8 -4,-11 -3,-3 -5,-4 -9,-4l-28 0c-2,0 -3,1 -3,3l0 46c0,1 0,2 1,3 0,1 1,1 2,1 1,0 1,0 2,-1 1,-1 1,-2 1,-3l0 -42 12 0z"/>
   <path id="6" class="fil2" d="M542 426l0 -38 13 0c2,0 3,1 4,2 2,2 2,4 2,6l0 23c0,2 0,4 -2,5 -1,2 -2,2 -4,2l-13 0zm0 8l13 0c3,0 6,-2 9,-4 2,-3 3,-7 3,-11l0 -23c0,-4 -1,-8 -3,-11 -3,-3 -6,-4 -9,-4l-16 0c-2,0 -3,1 -3,3l0 69c0,1 0,2 1,3 1,0 1,1 2,1 1,0 2,-1 2,-1 1,-1 1,-2 1,-3l0 -19z"/>
   <path id="7" class="fil2" d="M605 419c0,2 -1,4 -2,5 -1,2 -3,2 -4,2l-7 0c-1,0 -3,0 -4,-2 -1,-1 -2,-3 -2,-5l0 -23c0,-2 1,-4 2,-6 1,-1 3,-2 4,-2l13 0 0 31zm3 10c1,2 3,3 5,5 1,0 1,0 1,0 1,0 2,0 3,-1 0,-1 1,-2 1,-3 0,-2 -1,-3 -2,-3 -2,-1 -3,-2 -4,-4 0,-1 -1,-3 -1,-4l0 -35c0,-2 -1,-3 -3,-3l-16 0c-3,0 -6,1 -8,4 -3,3 -4,7 -4,11l0 23c0,4 1,8 4,11 2,2 5,4 8,4l7 0c1,0 3,-1 5,-2 2,0 3,-2 4,-3z"/>
   <path id="8" class="fil2" d="M649 426l-13 0c-2,0 -3,0 -4,-2 -1,-1 -2,-3 -2,-5l0 -35c0,-1 0,-2 -1,-2 -1,-1 -1,-1 -2,-1 -1,0 -2,0 -2,1 -1,0 -1,1 -1,2l0 35c0,4 1,8 3,11 3,2 6,4 9,4l19 0 0 3c0,1 0,2 1,3 1,0 1,1 2,1 1,0 2,-1 2,-1 1,-1 1,-2 1,-3l0 -7c0,-2 -1,-4 -3,-4l-3 0 0 -42c0,-1 0,-2 -1,-2 0,-1 -1,-1 -2,-1 -1,0 -2,0 -2,1 -1,0 -1,1 -1,2l0 42z"/>
   <path id="9" class="fil2" d="M705 430l0 -46c0,-1 0,-2 -1,-2 0,-1 -1,-1 -2,-1 -1,0 -1,0 -2,1 -1,0 -1,1 -1,2l0 42 -13 0c-1,0 -3,0 -4,-2 -1,-1 -2,-3 -2,-5l0 -35c0,-1 0,-2 -1,-2 0,-1 -1,-1 -2,-1 -1,0 -2,0 -2,1 -1,0 -1,1 -1,2l0 35c0,4 1,8 4,11 2,2 5,4 8,4l16 0c2,0 3,-1 3,-4z"/>
   <path id="10" class="fil2" d="M743 403l-13 0c-2,0 -3,0 -4,-2 -1,-1 -2,-3 -2,-5 0,-2 1,-4 2,-6 1,-1 2,-2 4,-2l13 0 0 15zm-8 8l8 0 0 19c0,1 0,2 1,3 0,1 1,1 2,1 1,0 2,0 2,-1 1,-1 1,-2 1,-3l0 -46c0,-2 -1,-3 -3,-3l-16 0c-4,0 -7,1 -9,4 -2,3 -3,7 -3,11 0,3 1,7 2,10 2,2 4,4 8,5l-10 17c0,1 0,1 0,2 0,1 0,2 1,3 0,1 1,1 2,1 1,0 2,-1 2,-2l12 -21z"/>
   <path class="fil1" d="M262 129l482 0c53,0 83,29 82,82l-6 707c-1,50 -24,85 -78,81l0 1 -486 0c-54,0 -83,-29 -82,-82l6 -707c1,-53 29,-82 82,-82zm462 833l18 0c37,0 46,-19 47,-41l6 -713c0,-22 -18,-41 -41,-41l-502 0c-22,0 -41,19 -41,41l-6 713c0,22 18,41 41,41 159,0 318,0 478,0z"/>
   <path class="fil2" d="M310 613l0 -99c0,-2 0,-3 -1,-4 -1,-2 -3,-2 -4,-2 -1,0 -2,0 -4,1 -1,1 -2,1 -2,3l-50 80 0 -78c0,-1 -1,-3 -2,-4 -2,-1 -3,-1 -5,-1 -1,0 -3,0 -4,1 -1,1 -2,3 -2,4l0 99c0,2 1,4 2,5 1,1 2,2 4,2 2,0 4,-2 6,-4l50 -80 0 77c0,2 1,3 2,4 1,1 3,2 4,2 2,0 3,-1 5,-2 1,0 1,-2 1,-4z"/>
   <path id="1" class="fil2" d="M409 613l0 -99c0,-3 -2,-5 -6,-5l-62 0c-4,0 -6,2 -6,5l0 99c0,2 1,3 2,4 1,1 3,2 4,2 2,0 4,-1 5,-2 1,0 2,-2 2,-4l0 -93 49 0 0 93c0,2 1,3 2,4 1,1 3,2 4,2 2,0 4,-1 5,-2 1,0 1,-2 1,-4z"/>
   <path id="2" class="fil2" d="M447 613l0 -5c0,-2 0,-3 -2,-4 -1,-1 -2,-2 -4,-2 -2,0 -3,1 -4,2 -1,1 -2,2 -2,4l0 4 -6 22c0,1 0,1 0,1 0,2 0,3 1,4 2,1 3,2 5,2 3,0 5,-2 6,-4l6 -22 0 -2z"/>
   <path id="3" class="fil2" d="M546 597l0 -66c0,-6 -3,-12 -8,-16 -4,-4 -10,-6 -17,-6l-25 0c-7,0 -13,2 -17,6 -5,4 -8,10 -8,16l0 66c0,6 3,11 8,16 4,4 10,6 17,6l25 0c7,0 13,-2 17,-6 5,-5 8,-10 8,-16zm-13 0c0,3 -1,6 -3,8 -3,2 -6,3 -9,3l-25 0c-3,0 -6,-1 -9,-3 -2,-2 -3,-5 -3,-8l0 -66c0,-3 1,-6 3,-8 3,-2 6,-3 9,-3l25 0c3,0 6,1 9,3 2,2 3,5 3,8l0 66z"/>
   <path id="4" class="fil2" d="M655 597l0 -66c0,-6 -3,-12 -8,-16 -4,-4 -10,-6 -17,-6l-25 0c-7,0 -13,2 -17,6 -5,4 -8,10 -8,16l0 66c0,6 3,11 8,16 4,4 10,6 17,6l25 0c7,0 13,-2 17,-6 5,-5 8,-10 8,-16zm-13 0c0,3 -1,6 -3,8 -3,2 -6,3 -9,3l-25 0c-3,0 -6,-1 -9,-3 -2,-2 -3,-5 -3,-8l0 -66c0,-3 1,-6 3,-8 3,-2 6,-3 9,-3l25 0c3,0 6,1 9,3 2,2 3,5 3,8l0 66z"/>
   <path id="5" class="fil2" d="M764 597l0 -66c0,-6 -3,-12 -8,-16 -4,-4 -10,-6 -17,-6l-25 0c-7,0 -13,2 -17,6 -5,4 -8,10 -8,16l0 66c0,6 3,11 8,16 4,4 10,6 17,6l25 0c7,0 13,-2 17,-6 5,-5 8,-10 8,-16zm-13 0c0,3 -1,6 -3,8 -3,2 -6,3 -9,3l-25 0c-3,0 -6,-1 -9,-3 -2,-2 -3,-5 -3,-8l0 -66c0,-3 1,-6 3,-8 3,-2 6,-3 9,-3l25 0c3,0 6,1 9,3 2,2 3,5 3,8l0 66z"/>
   <path class="fil1" d="M575 772l152 0c1,0 2,1 2,2l0 143c0,1 -1,1 -2,1l-152 0c-1,0 -1,0 -1,-1l0 -143c0,-1 0,-2 1,-2zm6 5l141 0c1,0 1,1 1,1l0 134c0,1 0,1 -1,1l-141 0c-1,0 -2,0 -2,-1l0 -134c0,0 1,-1 2,-1z"/>
   <g>
    <path class="fil3" d="M609 726c33,45 31,52 37,79 25,-46 23,-87 102,-135 11,-6 24,-2 29,9 6,10 2,24 -9,29 -82,50 -83,154 -125,164 -40,9 -32,-69 -65,-116 -9,-9 -8,-23 1,-31 8,-8 22,-8 30,1z"/>
   </g>
   <path class="fil4" d="M593 741c52,55 24,163 67,79 31,-62 45,-103 98,-131"/>
  </g>
 </g>
</svg>
