<?xml version="1.0" encoding="UTF-8"?>
<!DOCTYPE svg PUBLIC "-//W3C//DTD SVG 1.1//EN" "http://www.w3.org/Graphics/SVG/1.1/DTD/svg11.dtd">
<!-- Creator: CorelDRAW X7 -->
<svg xmlns="http://www.w3.org/2000/svg" xml:space="preserve" width="1000px" height="1000px" version="1.1" style="shape-rendering:geometricPrecision; text-rendering:geometricPrecision; image-rendering:optimizeQuality; fill-rule:evenodd; clip-rule:evenodd"
viewBox="0 0 1000 1000"
 xmlns:xlink="http://www.w3.org/1999/xlink">
 <defs>
  <style type="text/css">
   <![CDATA[
    .fil1 {fill:#0D6EFD}
    .fil2 {fill:#BB0000}
    .fil0 {fill:#0D6EFD;fill-rule:nonzero}
   ]]>
  </style>
 </defs>
 <g id="Слой_x0020_1">
  <metadata id="CorelCorpID_0Corel-Layer"/>
  <g id="_2024270192352">
   <g>
    <path class="fil0" d="M439 346l0 -156 66 0c17,0 29,2 36,5 8,2 14,7 19,15 4,7 6,15 6,24 0,12 -3,21 -10,29 -7,8 -17,12 -31,14 7,4 13,9 17,13 5,5 11,14 18,26l19 30 -38 0 -22 -34c-8,-12 -14,-20 -17,-23 -3,-3 -6,-5 -9,-6 -4,-1 -9,-2 -16,-2l-6 0 0 65 -32 0zm32 -90l23 0c15,0 24,0 28,-2 4,-1 7,-3 9,-6 2,-3 3,-7 3,-12 0,-5 -1,-9 -4,-13 -3,-3 -7,-5 -12,-6 -3,0 -10,0 -23,0l-24 0 0 39z"/>
    <path class="fil1" d="M500 124c79,0 144,65 144,144 0,80 -65,144 -144,144 -80,0 -145,-64 -145,-144 0,-79 65,-144 145,-144zm0 21c68,0 123,55 123,123 0,68 -55,124 -123,124 -69,0 -124,-56 -124,-124 0,-68 55,-123 124,-123z"/>
   </g>
   <rect class="fil2" x="290" y="542" width="221.879" height="16.6187"/>
   <rect class="fil2" x="290" y="605" width="221.879" height="16.6187"/>
   <rect class="fil2" x="290" y="669" width="221.879" height="16.6187"/>
   <g>
    <ellipse class="fil2" cx="660" cy="660" rx="69" ry="73"/>
    <path class="fil2" d="M713 769c9,-4 31,-25 35,-34 6,-13 24,6 24,-46 0,-28 -11,-45 3,-56 8,-6 -4,-47 -12,-56 -10,-11 -15,-14 -19,-25 -72,17 -5,-32 -90,-32 -26,0 -18,11 -44,20 -13,4 4,16 -40,18 -12,0 5,26 -15,34 -44,16 -15,32 -14,53 0,7 12,12 10,43 -1,2 3,31 5,36 2,4 17,23 27,24 20,1 7,21 28,21 4,0 9,0 14,0 -12,63 -35,125 -34,190 0,18 21,30 37,34 29,8 60,9 88,2 17,-5 40,-17 40,-35 -1,-65 -29,-127 -43,-191zm-53 -208c51,0 92,45 92,99 0,55 -41,99 -92,99 -51,0 -93,-44 -93,-99 0,-54 42,-99 93,-99z"/>
   </g>
   <path class="fil2" d="M231 0l537 0c59,0 88,32 88,95l0 686c0,57 -21,95 -78,95 -2,0 -24,-1 -26,-1l-9 -33 30 0c41,0 51,-21 51,-48l0 -713c0,-26 -20,-48 -45,-48l-559 0c-25,0 -45,22 -45,48l0 703c0,27 10,58 35,58l388 0 -8 34 -359 0c-59,0 -88,-32 -88,-95l0 -686c0,-63 29,-95 88,-95z"/>
   <rect class="fil2" x="290" y="468" width="431.517" height="16.6187"/>
  </g>
 </g>
</svg>
