<?xml version="1.0" encoding="UTF-8"?>
<!DOCTYPE svg PUBLIC "-//W3C//DTD SVG 1.1//EN" "http://www.w3.org/Graphics/SVG/1.1/DTD/svg11.dtd">
<!-- Creator: CorelDRAW X7 -->
<svg xmlns="http://www.w3.org/2000/svg" xml:space="preserve" width="1000px" height="1000px" version="1.1" style="shape-rendering:geometricPrecision; text-rendering:geometricPrecision; image-rendering:optimizeQuality; fill-rule:evenodd; clip-rule:evenodd"
viewBox="0 0 1000 1000"
 xmlns:xlink="http://www.w3.org/1999/xlink">
 <defs>
  <style type="text/css">
   <![CDATA[
    .fil0 {fill:#CC0000}
    .fil1 {fill:white}
    .fil2 {fill:#CC0000;fill-rule:nonzero}
   ]]>
  </style>
 </defs>
 <g id="Слой_x0020_1">
  <metadata id="CorelCorpID_0Corel-Layer"/>
  <path class="fil0" d="M500 0c276,0 500,224 500,500 0,276 -224,500 -500,500 -276,0 -500,-224 -500,-500 0,-276 224,-500 500,-500z"/>
  <path class="fil0" d="M500 0c276,0 500,224 500,500 0,276 -224,500 -500,500 -276,0 -500,-224 -500,-500 0,-276 224,-500 500,-500z"/>
  <path class="fil1" d="M500 43c252,0 457,205 457,457 0,252 -205,457 -457,457 -252,0 -457,-205 -457,-457 0,-252 205,-457 457,-457z"/>
  <path class="fil2" d="M669 806l-143 -254 -171 0 0 254 -75 0 0 -612 259 0c62,0 110,16 144,47 33,30 50,73 50,128 0,46 -12,84 -35,115 -24,31 -57,51 -99,59l156 263 -86 0zm-11 -436c0,-35 -11,-62 -32,-81 -22,-19 -53,-28 -94,-28l-177 0 0 226 180 0c39,0 70,-11 91,-31 22,-20 32,-49 32,-86z"/>
 </g>
</svg>
