<?xml version="1.0" encoding="UTF-8"?>
<!DOCTYPE svg PUBLIC "-//W3C//DTD SVG 1.1//EN" "http://www.w3.org/Graphics/SVG/1.1/DTD/svg11.dtd">
<!-- Creator: CorelDRAW X7 -->
<svg xmlns="http://www.w3.org/2000/svg" xml:space="preserve" width="1000px" height="1000px" version="1.1" style="shape-rendering:geometricPrecision; text-rendering:geometricPrecision; image-rendering:optimizeQuality; fill-rule:evenodd; clip-rule:evenodd"
viewBox="0 0 1000 1000"
 xmlns:xlink="http://www.w3.org/1999/xlink">
 <defs>
  <style type="text/css">
   <![CDATA[
    .str0 {stroke:#CC0000;stroke-width:7.99975}
    .fil2 {fill:none}
    .fil1 {fill:#FEFEFE}
    .fil0 {fill:#CC0000}
    .fil4 {fill:white}
    .fil3 {fill:#CC0000;fill-rule:nonzero}
   ]]>
  </style>
 </defs>
 <g id="Слой_x0020_1">
  <metadata id="CorelCorpID_0Corel-Layer"/>
  <g id="_2024581577728">
   <path class="fil0" d="M162 430l674 0 -33 525c-2,25 -21,45 -46,45l-516 0c-25,0 -43,-20 -45,-45l-34 -525z"/>
   <path class="fil1" d="M179 444l641 0 -32 499c-2,26 -16,43 -43,43l-491 0c-27,0 -41,-17 -43,-43l-32 -499z"/>
   <path class="fil2 str0" d="M361 411l34 0c-4,22 4,44 2,65 -2,19 -13,38 -12,57 0,25 3,45 10,69l-34 4c-4,-24 -6,-48 -6,-73 -1,-20 10,-40 11,-61 1,-20 -7,-40 -5,-61z"/>
   <path class="fil2 str0" d="M553 411l33 0c-3,22 4,44 2,65 -2,19 -13,38 -12,57 1,25 4,45 10,69l-33 4c-5,-24 -6,-48 -7,-73 0,-20 10,-40 12,-61 1,-20 -8,-40 -5,-61z"/>
   <path class="fil2 str0" d="M766 411l-34 0c4,22 -4,44 -2,65 2,19 13,38 12,57 0,25 -3,45 -10,69l34 4c4,-24 6,-48 6,-73 1,-20 -10,-40 -11,-61 -2,-20 7,-40 5,-61z"/>
   <path class="fil2 str0" d="M703 411l-34 0c4,22 -6,72 -4,93 1,19 24,33 23,52 -1,25 -12,22 -19,46l34 4c4,-24 14,-26 15,-50 0,-21 -22,-35 -23,-56 -1,-20 10,-68 8,-89z"/>
   <path class="fil2 str0" d="M435 413l33 0c-3,22 7,72 5,93 -2,19 -24,33 -23,51 0,26 12,23 18,47l-33 4c-4,-24 -15,-26 -15,-51 -1,-20 21,-34 23,-55 1,-20 -10,-68 -8,-89z"/>
   <path class="fil2 str0" d="M269 417l-34 0c4,22 8,41 10,62 1,19 1,29 1,48 -1,25 -10,57 -24,81l29 4c17,-22 28,-60 24,-85 -2,-20 1,-31 0,-52 -1,-20 -4,-37 -6,-58z"/>
   <path class="fil2 str0" d="M520 418l-33 0c3,22 2,40 4,62 2,19 2,29 1,47 -1,26 6,53 -8,77l29 4c16,-22 12,-55 9,-81 -3,-20 1,-31 0,-51 -2,-20 0,-38 -2,-58z"/>
   <path class="fil2 str0" d="M614 420l33 0c-3,22 -2,41 -4,63 -2,19 -2,28 -1,47 1,25 -6,53 8,76l-29 5c-16,-22 -12,-56 -9,-81 3,-20 -1,-31 0,-51 2,-20 0,-38 2,-59z"/>
   <path class="fil2 str0" d="M303 412l33 0c-3,22 -4,28 -6,50 -2,19 -4,53 -4,72 1,25 4,45 10,68l-33 5c-4,-24 -6,-49 -7,-73 0,-20 2,-56 4,-76 1,-20 1,-26 3,-46z"/>
   <polygon class="fil0" points="154,421 843,421 798,337 194,337 "/>
   <rect class="fil1" x="195" y="322" width="591.982" height="13.0744"/>
   <path class="fil2 str0" d="M279 982c-5,2 -4,1 -10,1 -67,0 -43,-31 -43,-60 2,22 44,51 58,52l2 1"/>
   <path class="fil2 str0" d="M228 923c11,0 36,-3 48,-4"/>
   <path class="fil2 str0" d="M372 932c-36,0 -59,-2 -92,11 -2,1 -33,5 -29,-5 24,-14 25,-25 55,-34 33,-10 64,17 77,17"/>
   <path class="fil2 str0" d="M370 942c-6,8 -59,35 -71,35"/>
   <path class="fil2 str0" d="M354 948c68,0 23,22 94,21 7,0 16,2 20,2"/>
   <path class="fil2 str0" d="M461 915c-50,0 -23,7 -48,28 -9,8 -43,41 -53,24"/>
   <path class="fil2 str0" d="M385 923c39,0 38,2 77,-6 10,-2 21,-17 28,-17"/>
   <path class="fil2 str0" d="M411 931c17,0 42,16 75,14 0,0 23,2 29,2"/>
   <path class="fil2 str0" d="M462 919c-5,23 53,46 71,40"/>
   <path class="fil2 str0" d="M474 913c27,24 58,3 83,41 8,12 -26,15 -41,24 -3,2 -7,2 -8,4"/>
   <path class="fil2 str0" d="M393 968c10,0 17,15 56,10 20,-2 64,-1 79,-16 0,0 20,-7 26,-11"/>
   <path class="fil2 str0" d="M490 906c12,0 54,-24 83,6 24,25 15,54 67,54 17,0 27,-43 56,-20 17,12 8,1 24,19 8,9 27,7 29,-20 1,-18 27,-29 25,-5"/>
   <path class="fil2 str0" d="M782 923c-60,-35 -32,26 -85,-6 -25,-16 -53,43 -70,18 -15,-21 -35,-31 -61,-24 -10,3 -12,23 -54,19l-2 -1"/>
   <path class="fil2 str0" d="M632 914c23,-1 42,34 63,47 20,12 37,18 51,-4 1,-1 0,-5 0,-6"/>
   <path class="fil2 str0" d="M726 920c10,8 38,39 31,55"/>
   <path class="fil2 str0" d="M646 970c-20,7 -44,-1 -57,-14 -20,-21 -25,-12 -53,-6 -5,1 -4,2 -7,2"/>
   <path class="fil2 str0" d="M526 921c46,11 40,-14 80,23 2,2 8,5 8,7"/>
   <path class="fil2 str0" d="M748 925c-52,16 -54,27 -94,45 -11,5 -42,3 -52,1"/>
   <path class="fil2 str0" d="M265 965c11,7 41,7 53,3"/>
   <path class="fil2 str0" d="M299 909c22,6 54,49 87,44l4 -1"/>
   <path class="fil2 str0" d="M645 914c-16,-2 -40,-1 -50,15"/>
   <path class="fil2 str0" d="M485 906c12,-4 27,-1 40,-1"/>
   <path class="fil2 str0" d="M782 920c0,37 -7,50 -46,61 -5,2 -41,0 -43,-1"/>
   <path class="fil2 str0" d="M420 972c-30,2 -59,1 -86,-18"/>
   <rect class="fil0" x="227" width="547" height="325"/>
   <rect class="fil1" x="239" y="12" width="523" height="317"/>
   <path class="fil3" d="M278 172c0,-23 6,-42 19,-55 12,-14 29,-20 49,-20 13,0 25,3 36,9 10,6 18,15 24,26 5,12 8,24 8,39 0,14 -3,27 -9,38 -6,12 -14,20 -25,26 -10,6 -22,9 -34,9 -14,0 -26,-3 -36,-10 -11,-6 -19,-15 -24,-26 -6,-11 -8,-23 -8,-36zm19 1c0,17 5,30 14,40 9,10 21,15 35,15 14,0 26,-5 35,-15 9,-10 13,-24 13,-42 0,-12 -1,-22 -5,-31 -4,-8 -10,-15 -18,-20 -7,-5 -16,-7 -25,-7 -13,0 -25,5 -34,14 -10,9 -15,24 -15,46zm135 -1c0,-23 7,-42 20,-55 12,-14 29,-20 49,-20 13,0 25,3 35,9 11,6 19,15 25,26 5,12 8,24 8,39 0,14 -3,27 -9,38 -6,12 -14,20 -25,26 -10,6 -22,9 -34,9 -14,0 -26,-3 -36,-10 -11,-6 -19,-15 -24,-26 -6,-11 -9,-23 -9,-36zm20 1c0,17 5,30 14,40 9,10 21,15 35,15 14,0 25,-5 35,-15 9,-10 13,-24 13,-42 0,-12 -2,-22 -5,-31 -4,-8 -10,-15 -18,-20 -7,-5 -16,-7 -25,-7 -13,0 -25,5 -35,14 -9,9 -14,24 -14,46zm135 -1c0,-23 7,-42 20,-55 12,-14 29,-20 49,-20 13,0 25,3 35,9 11,6 19,15 25,26 5,12 8,24 8,39 0,14 -3,27 -9,38 -6,12 -14,20 -25,26 -10,6 -22,9 -34,9 -14,0 -26,-3 -36,-10 -11,-6 -19,-15 -24,-26 -6,-11 -9,-23 -9,-36zm20 1c0,17 5,30 14,40 9,10 21,15 35,15 14,0 25,-5 35,-15 9,-10 13,-24 13,-42 0,-12 -2,-22 -6,-31 -3,-8 -9,-15 -17,-20 -7,-5 -16,-7 -25,-7 -13,0 -25,5 -35,14 -9,9 -14,24 -14,46z"/>
   <polygon class="fil4" points="157,433 846,433 843,417 157,417 "/>
  </g>
 </g>
</svg>
