<?xml version="1.0" encoding="UTF-8"?>
<!DOCTYPE svg PUBLIC "-//W3C//DTD SVG 1.1//EN" "http://www.w3.org/Graphics/SVG/1.1/DTD/svg11.dtd">
<!-- Creator: CorelDRAW X7 -->
<svg xmlns="http://www.w3.org/2000/svg" xml:space="preserve" width="1000px" height="1000px" version="1.1" style="shape-rendering:geometricPrecision; text-rendering:geometricPrecision; image-rendering:optimizeQuality; fill-rule:evenodd; clip-rule:evenodd"
viewBox="0 0 1000 1000"
 xmlns:xlink="http://www.w3.org/1999/xlink">
 <defs>
  <style type="text/css">
   <![CDATA[
    .fil0 {fill:#CC0000}
   ]]>
  </style>
 </defs>
 <g id="Слой_x0020_1">
  <metadata id="CorelCorpID_0Corel-Layer"/>
  <path class="fil0" d="M374 214c-7,-73 57,-133 130,-132 75,2 129,58 123,134l-253 -2zm510 735c105,-57 69,-211 72,-348 -73,17 -6,27 -168,27 -53,0 -153,-6 -200,1 -24,71 -107,74 -147,40 -63,-54 34,-40 -227,-41 -164,0 -112,-18 -167,-27 0,63 -10,240 11,287 44,97 138,83 228,82 104,0 207,0 311,1 66,0 245,15 287,-22zm101 -449c19,-43 43,-241 -85,-275 -48,-22 -155,-1 -213,-12 -35,-261 -352,-237 -370,0 -83,15 -178,-21 -251,28 -89,60 -75,232 -35,284l12 14c26,29 57,42 104,43 90,3 187,1 278,0 24,7 9,58 73,62 69,4 56,-55 79,-62 50,0 220,10 302,-3 50,-8 86,-31 106,-79z"/>
 </g>
</svg>
