<?xml version="1.0" encoding="UTF-8"?>
<!DOCTYPE svg PUBLIC "-//W3C//DTD SVG 1.1//EN" "http://www.w3.org/Graphics/SVG/1.1/DTD/svg11.dtd">
<!-- Creator: CorelDRAW X7 -->
<svg xmlns="http://www.w3.org/2000/svg" xml:space="preserve" width="1000px" height="1000px" version="1.1" style="shape-rendering:geometricPrecision; text-rendering:geometricPrecision; image-rendering:optimizeQuality; fill-rule:evenodd; clip-rule:evenodd"
viewBox="0 0 1000 1000"
 xmlns:xlink="http://www.w3.org/1999/xlink">
 <defs>
  <style type="text/css">
   <![CDATA[
    .fil1 {fill:#0D6EFD}
    .fil0 {fill:#BB0000}
   ]]>
  </style>
 </defs>
 <g id="Слой_x0020_1">
  <metadata id="CorelCorpID_0Corel-Layer"/>
  <g id="_2024577120688">
   <path class="fil0" d="M571 1000l352 -1 0 -113c-104,-5 -247,-1 -352,1l0 113z"/>
   <rect class="fil0" transform="matrix(3.21538 1.58079 -1.99925 4.06656 126.839 143.329)" width="5.7498" height="5.7498"/>
   <rect class="fil0" transform="matrix(3.21668 1.58142 -2.00008 4.06825 97.9219 202.138)" width="5.7498" height="5.7498"/>
   <polygon class="fil0" points="88,104 214,166 209,176 95,120 49,214 163,270 157,281 32,219 "/>
   <path class="fil1" d="M509 294c39,20 55,67 36,106 -19,39 -67,55 -106,36l-312 -154 69 -141 313 153zm-255 -64c12,-8 25,-9 40,-1 11,5 19,13 22,22 3,9 2,19 -4,30 -5,11 -13,19 -22,22 -9,3 -19,2 -30,-4 -9,-4 -16,-10 -19,-16 -4,-7 -5,-14 -4,-21l22 4c-1,8 2,14 8,17 8,4 15,2 21,-6l-21 -10 6 -13 21 10c3,-9 0,-16 -8,-20 -6,-3 -11,-2 -16,3l-16 -17zm155 140l-21 -10 25 -51 -23 -12 -25 52 -21 -11 33 -68 65 32 -33 68z"/>
   <path class="fil0" d="M442 450c-27,-14 -76,-17 -100,-3 19,35 39,68 60,105 71,130 22,80 136,190 63,61 52,47 54,108l306 -1c75,-247 79,-479 60,-747 -108,0 -63,203 -71,286l-46 -371c-118,33 -43,201 -45,352 -9,-63 -42,-199 -57,-277 -3,-19 -12,-76 -23,-92 -124,56 -26,205 -11,377 -43,-59 -23,-87 -100,-141 -21,-14 -72,-47 -110,-69 -16,-8 -30,-15 -39,-18 -36,187 182,78 159,324 -10,117 -86,93 -122,48 -23,-29 -17,-54 -51,-71zm-8 13c-26,-14 -54,-12 -67,-3 18,34 29,50 48,85 67,123 21,76 129,180 60,58 63,47 65,105l276 -1c71,-233 75,-456 57,-710 -71,1 -24,248 -53,315 -33,-122 -41,-260 -58,-395 -96,28 12,268 -33,363 -27,-50 -57,-214 -71,-288 -3,-18 -11,-74 -21,-89 -93,50 21,215 10,375 -60,-26 -33,-93 -106,-144 -20,-14 -68,-45 -105,-65 -14,-8 -27,-15 -36,-17 -21,133 184,60 164,304 -13,130 -112,100 -146,58 -22,-28 -22,-57 -53,-73z"/>
  </g>
 </g>
</svg>
