<?xml version="1.0" encoding="UTF-8"?>
<!DOCTYPE svg PUBLIC "-//W3C//DTD SVG 1.1//EN" "http://www.w3.org/Graphics/SVG/1.1/DTD/svg11.dtd">
<!-- Creator: CorelDRAW X7 -->
<svg xmlns="http://www.w3.org/2000/svg" xml:space="preserve" width="1000px" height="1000px" version="1.1" style="shape-rendering:geometricPrecision; text-rendering:geometricPrecision; image-rendering:optimizeQuality; fill-rule:evenodd; clip-rule:evenodd"
viewBox="0 0 1000 1000"
 xmlns:xlink="http://www.w3.org/1999/xlink">
 <defs>
  <style type="text/css">
   <![CDATA[
    .fil0 {fill:#CC0000}
   ]]>
  </style>
 </defs>
 <g id="Слой_x0020_1">
  <metadata id="CorelCorpID_0Corel-Layer"/>
  <path class="fil0" d="M98 755c-23,3 -28,6 -42,17 -16,29 -6,49 -30,59 -18,18 -25,14 -26,50 34,13 512,17 535,1 -3,-23 0,-31 -15,-45 -26,-23 -15,0 -25,-37 -9,-35 -22,-43 -67,-44l-330 -1zm476 -424c7,-7 115,-25 13,-92 -39,-26 -161,-125 -192,-129 -47,-8 -38,48 -38,51 -1,33 -16,35 7,51l-54 75c-18,26 -34,49 -52,78l-4 4c-1,1 -2,2 -3,2 -2,3 -4,6 -6,9l-34 54c-13,9 -24,28 -25,45 -16,-3 -24,-7 -40,0 -30,14 -77,35 -51,71 6,9 38,30 53,40l113 78c12,8 45,33 57,36 57,12 46,-84 35,-110l13 -13c1,-1 1,-1 6,-7l36 -52c16,10 11,22 40,16 29,-5 15,-10 44,9l449 313c42,19 64,-10 58,-53l-441 -309c-9,-7 -23,-14 -33,-22 -25,-21 -3,-9 -14,-37 -4,-12 -8,-12 -20,-22l-6 -6c17,-15 43,-56 46,-77 22,5 25,8 43,-3z"/>
 </g>
</svg>
