<?xml version="1.0" encoding="UTF-8"?>
<!DOCTYPE svg PUBLIC "-//W3C//DTD SVG 1.1//EN" "http://www.w3.org/Graphics/SVG/1.1/DTD/svg11.dtd">
<!-- Creator: CorelDRAW X7 -->
<svg xmlns="http://www.w3.org/2000/svg" xml:space="preserve" width="1000px" height="1000px" version="1.1" style="shape-rendering:geometricPrecision; text-rendering:geometricPrecision; image-rendering:optimizeQuality; fill-rule:evenodd; clip-rule:evenodd"
viewBox="0 0 1000 1000"
 xmlns:xlink="http://www.w3.org/1999/xlink">
 <defs>
  <style type="text/css">
   <![CDATA[
    .fil0 {fill:#CC0000}
   ]]>
  </style>
 </defs>
 <g id="Слой_x0020_1">
  <metadata id="CorelCorpID_0Corel-Layer"/>
  <g id="_2024581564960">
   <g>
    <g>
     <rect class="fil0" transform="matrix(-3.09007 -7.02937 9.44384 -4.15145 552.031 306.95)" width="1.74992" height="14.3751"/>
     <rect class="fil0" transform="matrix(-3.09007 -7.02937 14.0894 -6.19363 528.734 344.588)" width="1.74992" height="14.3751"/>
     <rect class="fil0" transform="matrix(-5.51808 -12.5527 9.44384 -4.15145 576.464 362.53)" width="1.74992" height="14.3751"/>
     <rect class="fil0" transform="matrix(-3.09007 -7.02937 14.0894 -6.19363 553.164 400.162)" width="1.74992" height="14.3751"/>
     <rect class="fil0" transform="matrix(3.09007 7.02937 9.44384 -4.15145 697.266 637.333)" width="1.74992" height="14.3751"/>
     <rect class="fil0" transform="matrix(3.09007 7.02937 14.0894 -6.19363 653.785 629.057)" width="1.74992" height="14.3751"/>
     <rect class="fil0" transform="matrix(5.51808 12.5527 9.44384 -4.15145 672.836 581.759)" width="1.74992" height="14.3751"/>
     <rect class="fil0" transform="matrix(3.09007 7.02937 14.0894 -6.19363 629.355 573.482)" width="1.74992" height="14.3751"/>
    </g>
    <g>
     <circle class="fil0" transform="matrix(7.02938 -3.09007 3.09007 7.02937 32.643 732.385)" r="4"/>
     <path class="fil0" d="M64 692l129 -56 19 44 -128 56c3,-8 4,-17 0,-26 -4,-9 -11,-15 -20,-18z"/>
     <rect class="fil0" transform="matrix(7.02938 -3.09007 3.09007 7.02937 191.633 602.207)" width="1.74992" height="14.3751"/>
     <rect class="fil0" transform="matrix(7.55608 -3.3216 3.67934 8.36987 228.023 620.281)" width="43.375" height="5.25014"/>
     <rect class="fil0" transform="matrix(7.02938 -3.09007 3.09007 7.02937 554.755 442.58)" width="1.74992" height="14.3751"/>
     <rect class="fil0" transform="matrix(7.02938 -3.09007 1.34379 3.05689 591.146 460.653)" width="1.74992" height="14.3751"/>
    </g>
    <rect class="fil0" transform="matrix(38.1867 86.8682 9.44384 -4.15145 591.237 396.135)" width="1.74992" height="14.3751"/>
   </g>
   <g>
    <rect class="fil0" x="630" y="738" width="370.493" height="26.8767"/>
    <rect class="fil0" x="667" y="696" width="295.627" height="21.116"/>
   </g>
  </g>
 </g>
</svg>
