<?xml version="1.0" encoding="UTF-8"?>
<!DOCTYPE svg PUBLIC "-//W3C//DTD SVG 1.1//EN" "http://www.w3.org/Graphics/SVG/1.1/DTD/svg11.dtd">
<!-- Creator: CorelDRAW X7 -->
<svg xmlns="http://www.w3.org/2000/svg" xml:space="preserve" width="1000px" height="1000px" version="1.1" style="shape-rendering:geometricPrecision; text-rendering:geometricPrecision; image-rendering:optimizeQuality; fill-rule:evenodd; clip-rule:evenodd"
viewBox="0 0 1000 1000"
 xmlns:xlink="http://www.w3.org/1999/xlink">
 <defs>
  <style type="text/css">
   <![CDATA[
    .fil1 {fill:#FEFEFE}
    .fil0 {fill:#CC0000}
   ]]>
  </style>
 </defs>
 <g id="Слой_x0020_1">
  <metadata id="CorelCorpID_0Corel-Layer"/>
  <g id="_2024577111728">
   <path class="fil0" d="M0 582l82 -281 155 47 -1 9 37 11 0 6c35,-1 47,-8 121,-14 31,-2 40,-27 51,-29 26,-5 59,-2 85,-2 22,3 44,6 66,10 19,7 38,14 56,22l86 -5 0 -13 50 -4 0 -13 153 -36 59 314 -173 30 -7 -49 -57 4 -5 -45 -25 4 -32 28c0,14 1,32 -9,43 -13,16 -28,11 -46,7 -6,25 -22,37 -50,32 -4,15 -17,29 -40,23 -15,26 -35,32 -62,21 -25,14 -50,9 -54,-15 -32,9 -55,-1 -58,-27 -38,7 -55,-3 -58,-46 -44,14 -66,3 -62,-38l-34 0 -7 34 -48 -9 -11 39 -162 -58z"/>
   <g>
    <polygon class="fil1" points="234,373 263,379 213,597 184,591 "/>
    <path class="fil1" d="M233 563l41 -178c35,-6 77,-9 112,-15 -16,38 17,55 63,46 13,-4 21,-5 39,-8 53,4 120,44 184,133 9,12 11,36 11,55 0,18 -2,23 -17,24 -18,0 -14,-7 -15,-15 0,-8 4,-18 -5,-28 -23,-26 -41,-42 -67,-66 -5,-5 -11,2 -6,7 23,26 47,42 65,68 7,10 4,29 -2,40 -5,11 -17,25 -28,22 -10,-2 -5,-22 -11,-31 -17,-18 -28,-31 -47,-50 -3,-4 -7,4 -4,9 13,19 29,30 41,47 7,11 -3,25 -6,36 -1,5 -11,13 -16,10 -21,-14 -34,-35 -53,-53 -4,-3 -9,6 -5,10 14,16 27,23 36,42 7,12 -9,22 -17,27 -6,3 -19,4 -22,-2 -7,-11 -3,-28 -10,-39 -10,-19 -22,-15 -37,-14 -5,-36 -28,-39 -58,-30 -7,-22 -28,-32 -66,-23 -15,-16 -37,-25 -63,-24l-37 0z"/>
    <path class="fil1" d="M314 603c-1,7 -10,6 -21,6 -11,0 -19,-10 -19,-17 0,-7 1,-9 1,-11 1,-3 6,-3 7,-2 6,8 14,11 25,11 14,0 8,4 7,13z"/>
    <path class="fil1" d="M379 647c-3,6 -14,6 -26,2 -13,-3 -18,-18 -16,-25 2,-7 3,-9 4,-10 1,-3 8,-1 8,0 5,9 13,15 26,18 15,4 8,6 4,15z"/>
    <path class="fil1" d="M433 677c-2,5 -13,4 -25,1 -13,-4 -18,-18 -16,-25 1,-6 4,-12 5,-14 1,-3 8,-1 8,1 4,9 13,14 26,18 15,4 6,10 2,19z"/>
    <path class="fil1" d="M481 696c-3,4 -7,4 -18,2 -10,-3 -19,-14 -17,-19 1,-5 2,-6 3,-7 1,-2 7,-1 7,0 4,6 11,10 21,13 13,3 7,4 4,11z"/>
    <path class="fil1" d="M460 655c2,-3 11,-4 18,-3 6,2 13,14 12,18 -1,4 -1,6 -1,7 -1,2 -5,1 -5,0 -2,-5 -14,-11 -21,-13 -8,-1 -4,-3 -3,-9z"/>
    <path class="fil1" d="M410 619c2,-4 12,-4 21,-2 9,2 18,18 17,22 -1,5 -2,6 -2,7 -2,2 -6,0 -7,0 -3,-6 -17,-16 -26,-18 -11,-3 -6,-4 -3,-9z"/>
    <path class="fil1" d="M352 598c2,-3 13,-2 21,0 9,2 18,14 17,18 -2,4 -2,5 -3,6 -1,2 -5,0 -6,0 -2,-6 -17,-13 -26,-15 -11,-3 -6,-4 -3,-9z"/>
    <polygon class="fil1" points="750,355 789,352 819,573 772,577 "/>
    <path class="fil1" d="M397 401c-5,-4 -6,-17 -2,-25 11,-1 20,-4 29,-10 8,-5 16,-13 21,-24 31,-7 95,-3 136,4 22,3 50,26 72,25l86 -5 16 167c-8,0 -19,1 -25,5 -12,7 -13,14 -25,22 -3,2 -13,-1 -14,-5 -19,-51 -96,-130 -179,-157 -10,-3 -27,-3 -38,-1 -13,3 -28,12 -42,12 -12,0 -25,0 -35,-8z"/>
    <circle class="fil1" cx="130" cy="581" r="17"/>
   </g>
  </g>
 </g>
</svg>
