<?xml version="1.0" encoding="UTF-8"?>
<!DOCTYPE svg PUBLIC "-//W3C//DTD SVG 1.1//EN" "http://www.w3.org/Graphics/SVG/1.1/DTD/svg11.dtd">
<!-- Creator: CorelDRAW X7 -->
<svg xmlns="http://www.w3.org/2000/svg" xml:space="preserve" width="1000px" height="1000px" version="1.1" style="shape-rendering:geometricPrecision; text-rendering:geometricPrecision; image-rendering:optimizeQuality; fill-rule:evenodd; clip-rule:evenodd"
viewBox="0 0 1000 1000"
 xmlns:xlink="http://www.w3.org/1999/xlink">
 <defs>
  <style type="text/css">
   <![CDATA[
    .fil1 {fill:#FEFEFE}
    .fil0 {fill:#CC0000}
    .fil2 {fill:#CC0000;fill-rule:nonzero}
   ]]>
  </style>
 </defs>
 <g id="Слой_x0020_1">
  <metadata id="CorelCorpID_0Corel-Layer"/>
  <path class="fil0" d="M31 544l938 0c17,0 31,14 31,31l0 296c0,17 -14,31 -31,31l-938 0c-17,0 -31,-14 -31,-31l0 -296c0,-17 14,-31 31,-31z"/>
  <path class="fil1" d="M29 557l944 0c7,0 14,6 14,14l0 266c0,8 -7,14 -14,14l-944 0c-8,0 -14,-6 -14,-14l0 -266c0,-8 6,-14 14,-14z"/>
  <path class="fil0" d="M192 667l597 0c5,0 8,4 8,9l0 217c0,5 -3,9 -8,9l-597 0c-4,0 -8,-4 -8,-9l0 -217c0,-5 4,-9 8,-9z"/>
  <polygon class="fil1" points="212,868 784,868 762,810 235,810 "/>
  <path class="fil0" d="M179 891l629 0c4,0 8,4 8,8l0 11c0,5 -4,9 -8,9l-629 0c-4,0 -8,-4 -8,-9l0 -11c0,-4 4,-8 8,-8z"/>
  <path class="fil0" d="M19 529l953 0c-19,-44 -64,-47 -109,-47l-730 0c-52,0 -81,10 -114,47z"/>
  <polygon class="fil0" points="191,355 805,355 805,462 191,462 "/>
  <polygon class="fil0" points="248,81 747,81 747,494 248,494 "/>
  <polygon class="fil1" points="264,94 731,94 731,481 264,481 "/>
  <path class="fil2" d="M301 205l20 0 20 45 17 -45 18 0 -29 65c-3,8 -6,13 -10,17 -3,3 -7,5 -12,5 -6,0 -10,0 -12,-1l0 -13c2,0 4,0 6,0 4,0 7,0 9,-2 2,-1 3,-4 5,-9l-32 -62zm139 54l17 6c-3,9 -7,16 -13,21 -6,4 -14,7 -23,7 -12,0 -21,-4 -28,-12 -8,-8 -11,-19 -11,-32 0,-14 3,-26 11,-34 7,-7 17,-11 29,-11 10,0 19,3 25,9 4,4 7,9 9,16l-17 4c-1,-5 -3,-8 -6,-11 -3,-2 -7,-4 -12,-4 -6,0 -12,3 -16,7 -4,5 -6,12 -6,23 0,10 2,18 6,23 4,4 9,7 16,7 4,0 8,-2 12,-5 3,-3 5,-7 7,-14zm48 32l0 -71 -26 0 0 -15 69 0 0 15 -26 0 0 71 -17 0zm124 0l-19 0 -7 -19 -35 0 -7 19 -19 0 34 -86 18 0 35 86zm-32 -34l-12 -32 -12 32 24 0zm41 -52l34 0c7,0 12,0 16,1 3,1 6,2 9,4 2,1 4,4 6,7 2,3 3,6 3,10 0,4 -1,7 -3,11 -3,3 -6,6 -9,7 5,2 9,4 12,8 3,4 4,8 4,13 0,4 -1,8 -3,12 -2,3 -4,6 -7,8 -3,3 -7,4 -12,5 -3,0 -10,0 -21,0l-29 0 0 -86zm17 14l0 20 12 0c6,0 11,0 12,0 3,0 6,-1 7,-3 2,-2 3,-4 3,-7 0,-2 -1,-5 -2,-6 -2,-2 -4,-3 -7,-3 -2,0 -7,-1 -15,-1l-10 0zm0 35l0 23 16 0c7,0 11,-1 12,-1 3,0 5,-2 7,-3 1,-2 2,-5 2,-8 0,-2 -1,-4 -2,-6 -1,-2 -3,-3 -5,-4 -3,-1 -8,-1 -16,-1l-14 0z"/>
 </g>
</svg>
