<?xml version="1.0" encoding="UTF-8"?>
<!DOCTYPE svg PUBLIC "-//W3C//DTD SVG 1.1//EN" "http://www.w3.org/Graphics/SVG/1.1/DTD/svg11.dtd">
<!-- Creator: CorelDRAW X7 -->
<svg xmlns="http://www.w3.org/2000/svg" xml:space="preserve" width="1000px" height="1000px" version="1.1" style="shape-rendering:geometricPrecision; text-rendering:geometricPrecision; image-rendering:optimizeQuality; fill-rule:evenodd; clip-rule:evenodd"
viewBox="0 0 1000 1000"
 xmlns:xlink="http://www.w3.org/1999/xlink">
 <defs>
  <style type="text/css">
   <![CDATA[
    .str0 {stroke:#2B2A29;stroke-width:0.944882;stroke-opacity:0.200000}
    .fil1 {fill:#BB0000}
    .fil0 {fill:#E31E24;fill-opacity:0.200000}
   ]]>
  </style>
 </defs>
 <g id="Слой_x0020_1">
  <metadata id="CorelCorpID_0Corel-Layer"/>
  <g id="_2024581577120">
   <g>
    <g>
     <g>
      <path class="fil0 str0" d="M825 286c-157,10 -263,375 -258,413 4,30 -21,29 -17,62 8,58 61,129 113,129 55,-1 138,-46 104,-129 -76,68 -152,46 -179,17 -22,-24 -2,-65 6,-78 140,-170 286,-267 402,-150 24,-133 -59,-272 -171,-264zm2 7c-151,7 -251,360 -251,403 0,15 -23,40 -20,59 7,53 55,130 105,129 70,-2 122,-53 103,-114 -47,60 -190,57 -191,-18 0,-26 8,-38 11,-52 143,-175 294,-268 403,-168 23,-71 -36,-244 -160,-239z"/>
      <path class="fil0 str0" d="M866 375c-115,9 -212,193 -256,270 58,-60 149,-162 243,-174 39,-6 90,-7 122,41 2,-50 -40,-141 -109,-137z"/>
      <path class="fil0 str0" d="M559 765c18,42 56,106 111,106 34,1 80,-30 92,-84 -29,35 -64,52 -99,53 -42,2 -76,-37 -102,-75l-2 0z"/>
     </g>
     <g>
      <path class="fil0 str0" d="M171 295c157,3 284,362 282,399 -2,31 23,29 20,62 -4,58 -54,132 -105,134 -55,2 -141,-39 -112,-124 80,65 155,39 180,8 20,-24 -1,-64 -11,-77 -149,-163 -301,-252 -409,-130 -32,-131 42,-274 155,-272zm-2 7c151,0 272,347 274,391 1,15 25,38 24,58 -4,52 -47,132 -98,133 -70,2 -124,-47 -109,-109 50,58 193,48 189,-26 -1,-26 -9,-38 -13,-52 -153,-168 -309,-253 -412,-148 -27,-70 21,-246 145,-247z"/>
      <path class="fil0 str0" d="M135 387c115,2 223,181 271,256 -52,-52 -150,-145 -240,-161 -42,-7 -99,-5 -132,46 -5,-50 32,-143 101,-141z"/>
      <path class="fil0 str0" d="M460 769c-16,41 -45,100 -100,103 -34,2 -82,-26 -97,-79 31,32 67,48 102,48 42,-1 74,-36 93,-72l2 0z"/>
     </g>
    </g>
    <g>
     <path class="fil0 str0" d="M641 234c0,1 0,2 0,3l0 1 0 2c-3,96 -61,273 -125,457 -2,7 10,15 9,22 -6,62 29,142 101,186l-110 90c-4,7 -3,7 -7,0l-119 -91c41,-14 114,-85 101,-194 0,-2 4,-4 4,-6 -33,-161 -134,-273 -139,-464l0 -2 0 -1c0,-1 0,-2 0,-3 11,-95 83,-111 139,-226 24,87 142,144 146,226zm-12 2c0,1 0,2 0,3l0 1 0 1c-2,97 -73,310 -121,459 -1,6 11,12 11,18 -5,62 29,153 97,186l-100 83c-4,6 -3,6 -6,0l-109 -81c38,-10 113,-98 96,-195 -1,-3 4,-7 4,-10 -18,-119 -137,-312 -134,-460l0 -1 0 -1c0,-1 0,-2 0,-3 0,-75 97,-131 128,-206 35,95 131,122 134,206z"/>
     <path class="fil0 str0" d="M512 973l-2 -3 -81 -67c50,-27 69,-51 80,-106l0 0 3 176zm-7 -295c0,-3 1,-6 0,-9 -22,-172 -181,-395 -76,-514 25,-25 51,-57 65,-81 1,80 13,623 11,604z"/>
    </g>
    <path class="fil0 str0" d="M404 688l200 0c17,0 25,11 25,24l0 21c0,13 -8,24 -25,24l-200 0c-17,0 -24,-11 -24,-24l0 -21c0,-13 7,-24 24,-24z"/>
   </g>
   <g>
    <g>
     <g>
      <path class="fil1" d="M817 278c-157,11 -263,375 -258,413 3,30 -22,30 -17,63 7,57 61,128 113,128 55,0 138,-46 104,-129 -76,68 -152,46 -179,17 -22,-23 -3,-65 6,-78 140,-170 286,-267 401,-150 25,-132 -58,-271 -170,-264zm2 7c-151,7 -252,360 -251,403 0,16 -23,40 -21,60 7,52 55,129 106,128 70,-2 121,-53 103,-114 -47,60 -191,57 -191,-17 0,-26 8,-39 10,-52 143,-175 295,-268 403,-169 23,-71 -35,-244 -159,-239z"/>
      <path class="fil1" d="M858 368c-115,8 -213,192 -256,270 58,-61 149,-163 243,-175 38,-5 90,-6 122,41 2,-50 -41,-141 -109,-136z"/>
      <path class="fil1" d="M551 757c18,42 56,107 111,107 34,0 80,-30 91,-85 -28,35 -63,52 -98,53 -42,2 -77,-37 -102,-75l-2 0z"/>
     </g>
     <g>
      <path class="fil1" d="M163 287c157,3 284,362 281,400 -2,30 23,28 21,61 -4,59 -54,132 -105,134 -55,3 -141,-39 -112,-124 80,65 155,39 180,9 20,-25 -2,-65 -11,-78 -149,-163 -301,-252 -409,-129 -33,-132 42,-275 155,-273zm-2 8c151,-1 272,346 274,390 1,15 25,39 24,58 -4,52 -48,132 -98,133 -70,2 -125,-47 -109,-108 50,57 193,47 189,-27 -2,-26 -10,-38 -13,-52 -153,-167 -310,-253 -413,-148 -27,-70 22,-246 146,-246z"/>
      <path class="fil1" d="M126 379c116,2 224,182 272,257 -52,-53 -150,-146 -240,-161 -43,-8 -100,-6 -132,45 -5,-50 32,-143 100,-141z"/>
      <path class="fil1" d="M452 761c-16,41 -45,100 -100,103 -34,2 -82,-26 -97,-79 30,33 67,48 102,48 41,0 73,-36 92,-72l3 0z"/>
     </g>
    </g>
    <g>
     <path class="fil1" d="M632 226c0,2 0,3 0,4l0 1 0 1c-2,96 -61,274 -124,458 -3,7 10,14 9,22 -6,62 28,141 101,185l-110 91c-4,6 -3,6 -7,0l-119 -92c40,-14 113,-85 101,-194 -1,-2 4,-4 3,-6 -32,-161 -133,-273 -138,-464l0 -1 0 -1c0,-1 0,-2 0,-4 10,-95 83,-111 139,-226 23,87 142,144 145,226zm-11 2c0,1 0,2 0,3l0 1 0 1c-2,97 -73,310 -121,459 -2,6 11,12 11,18 -6,62 29,153 96,186l-100 83c-3,6 -2,6 -6,0l-108 -81c37,-9 113,-98 96,-194 -1,-4 4,-8 3,-11 -17,-118 -136,-312 -133,-460l0 -1 0 -1c0,-1 0,-2 0,-3 0,-75 96,-131 127,-206 36,95 131,122 135,206z"/>
     <path class="fil1" d="M504 966l-3 -4 -80 -67c49,-26 69,-50 80,-105l0 0 3 176zm-7 -296c0,-3 0,-6 0,-9 -22,-172 -182,-394 -77,-514 26,-25 52,-57 65,-80 2,79 14,622 12,603z"/>
    </g>
    <path class="fil1" d="M396 680l200 0c17,0 24,11 24,24l0 21c0,13 -7,24 -24,24l-200 0c-17,0 -25,-11 -25,-24l0 -21c0,-13 8,-24 25,-24z"/>
   </g>
  </g>
 </g>
</svg>
