<?xml version="1.0" encoding="UTF-8"?>
<!DOCTYPE svg PUBLIC "-//W3C//DTD SVG 1.1//EN" "http://www.w3.org/Graphics/SVG/1.1/DTD/svg11.dtd">
<!-- Creator: CorelDRAW X7 -->
<svg xmlns="http://www.w3.org/2000/svg" xml:space="preserve" width="1000px" height="1000px" version="1.1" style="shape-rendering:geometricPrecision; text-rendering:geometricPrecision; image-rendering:optimizeQuality; fill-rule:evenodd; clip-rule:evenodd"
viewBox="0 0 1000 1000"
 xmlns:xlink="http://www.w3.org/1999/xlink">
 <defs>
  <style type="text/css">
   <![CDATA[
    .fil0 {fill:#CC0000}
   ]]>
  </style>
 </defs>
 <g id="Слой_x0020_1">
  <metadata id="CorelCorpID_0Corel-Layer"/>
  <path class="fil0" d="M534 778l3 -544 -32 -44 -2 2c-47,-31 -88,-72 -153,-82 -89,-13 -198,69 -214,162l-114 254 -17 0c3,138 319,150 317,0l-19 0 -115 -256c-10,-43 71,-112 120,-117 66,-6 109,40 156,80l1 545 69 0zm-373 -489c22,47 106,204 108,237l-214 0 106 -237z"/>
  <path class="fil0" d="M536 372l1 -134c46,-39 89,-85 155,-79 49,5 130,74 120,117l-115 256 -19 0c-2,150 314,138 318,0l-18 0 -113 -254c-17,-93 -126,-175 -215,-162 -61,10 -101,46 -144,76l-1 -2 -2 2c-47,-31 -88,-72 -153,-82 -89,-13 -198,69 -214,162l-114 254 -17 0c3,138 319,150 317,0l-19 0 -115 -256c-10,-43 71,-112 120,-117 66,-6 109,40 156,80l0 7 -1 0 1 165 1 372 -88 0c-27,0 -50,22 -50,50l0 8c-27,0 -50,23 -50,50l0 8 449 0 0 -8c0,-27 -22,-50 -50,-50l0 -8c0,-28 -22,-50 -50,-50l-91 0 1 -405zm303 -77c-22,47 -106,204 -108,237l214 0 -106 -237zm-678 -6c22,47 106,204 108,237l-214 0 106 -237z"/>
 </g>
</svg>
