<?xml version="1.0" encoding="UTF-8"?>
<!DOCTYPE svg PUBLIC "-//W3C//DTD SVG 1.1//EN" "http://www.w3.org/Graphics/SVG/1.1/DTD/svg11.dtd">
<!-- Creator: CorelDRAW X7 -->
<svg xmlns="http://www.w3.org/2000/svg" xml:space="preserve" width="1000px" height="1000px" version="1.1" style="shape-rendering:geometricPrecision; text-rendering:geometricPrecision; image-rendering:optimizeQuality; fill-rule:evenodd; clip-rule:evenodd"
viewBox="0 0 1000 1000"
 xmlns:xlink="http://www.w3.org/1999/xlink">
 <defs>
  <style type="text/css">
   <![CDATA[
    .fil0 {fill:#CC0000}
    .fil1 {fill:#CC0000;fill-rule:nonzero}
   ]]>
  </style>
 </defs>
 <g id="Слой_x0020_1">
  <metadata id="CorelCorpID_0Corel-Layer"/>
  <g id="_2024270186112">
   <g>
    <path class="fil0" d="M312 876l378 0c1,0 2,1 2,2l0 17c0,2 -1,3 -2,3l-378 0c-1,0 -2,-1 -2,-3l0 -17c0,-1 1,-2 2,-2z"/>
    <polygon class="fil0" points="489,436 513,436 513,880 489,880 "/>
    <path class="fil0" d="M501 753c15,0 27,16 27,36 0,20 -12,36 -27,36 -15,0 -27,-16 -27,-36 0,-20 12,-36 27,-36z"/>
    <path class="fil0" d="M474 789l26 0 28 0c-2,93 92,62 92,98l-120 0 -119 0c1,-36 94,-5 93,-98z"/>
    <path class="fil0" d="M276 434c17,-3 32,5 34,18 2,12 -10,24 -27,27 -18,2 -33,-6 -35,-18 -2,-12 11,-24 28,-27z"/>
    <path class="fil0" d="M501 446c20,0 36,29 36,66 0,37 -16,66 -36,66 -20,0 -36,-29 -36,-66 0,-37 16,-66 36,-66z"/>
    <path class="fil0" d="M480 482c-17,0 -33,-5 -49,-5 -29,0 -57,13 -85,14 -22,1 -45,-5 -52,-29 0,11 -39,-1 -39,10 24,30 66,37 83,38 27,1 65,-4 92,-4 17,0 33,4 50,4 0,-11 0,-17 0,-28z"/>
    <path class="fil0" d="M742 535c-15,-10 -32,-9 -39,2 -7,10 -1,26 14,36 14,9 31,9 38,-2 7,-10 1,-26 -13,-36z"/>
    <path class="fil0" d="M533 492c15,7 35,11 50,17 25,12 46,36 71,49 19,10 43,13 59,-5 -5,10 36,16 32,26 -35,17 -75,5 -91,-1 -26,-10 -58,-31 -83,-43 -15,-7 -32,-9 -47,-16 5,-10 4,-17 9,-27z"/>
    <g>
     <path class="fil0" d="M392 698c-19,22 -64,38 -116,38 -53,0 -98,-16 -116,-38l232 0z"/>
     <g>
      <polygon class="fil0" points="272,486 279,486 279,725 272,725 "/>
      <polygon class="fil0" points="272,484 279,487 178,704 171,701 "/>
      <polygon class="fil0" points="282,484 276,487 376,704 383,701 "/>
     </g>
    </g>
    <path class="fil0" d="M501 405c10,0 18,9 18,19 0,10 -8,18 -18,18 -10,0 -19,-8 -19,-18 0,-10 9,-19 19,-19z"/>
    <g>
     <path class="fil0" d="M842 783c-19,22 -64,38 -117,38 -52,0 -97,-16 -116,-38l233 0z"/>
     <g>
      <polygon class="fil0" points="722,571 729,571 729,810 722,810 "/>
      <polygon class="fil0" points="722,569 729,572 628,789 621,786 "/>
      <polygon class="fil0" points="732,569 725,572 826,789 833,786 "/>
     </g>
    </g>
   </g>
   <path class="fil1" d="M920 670c-4,0 -7,-1 -10,-4 -3,-3 -4,-6 -4,-10 0,-6 6,-14 17,-23l33 -25c11,-10 17,-19 17,-27 0,-11 -5,-20 -15,-29 -9,-9 -19,-13 -30,-13 -6,0 -13,3 -22,9 -8,5 -14,8 -16,8 -4,0 -7,-1 -10,-4 -2,-3 -4,-6 -4,-10 0,-7 7,-14 21,-21 13,-7 23,-10 31,-10 18,0 35,7 50,21 14,15 22,31 22,49 0,13 -4,25 -13,35 -5,6 -14,14 -28,24 -14,10 -24,18 -29,25 -3,3 -7,5 -10,5zm-8 52c-4,0 -7,-2 -11,-4 -3,-3 -4,-6 -4,-10 0,-6 1,-11 4,-15 3,-5 8,-8 13,-8 9,0 13,6 13,16 0,5 -1,10 -4,14 -2,4 -6,7 -11,7z"/>
   <path class="fil1" d="M239 289c0,12 -5,24 -16,37 -11,9 -21,19 -31,29 -12,10 -18,19 -18,27 0,3 1,6 3,9 1,1 2,4 4,6l-7 5c-9,-6 -13,-13 -13,-23 0,-9 8,-23 24,-41 16,-18 25,-32 25,-43 0,-10 -4,-18 -11,-25 -7,-6 -16,-10 -27,-10 -11,0 -18,2 -21,5 -2,1 -6,7 -11,18l-3 6 -9 -3 12 -35c6,-4 13,-7 19,-9 7,-2 13,-3 20,-3 17,0 31,5 42,13 12,9 18,21 18,37zm-44 153c0,5 -1,10 -5,13 -4,4 -8,6 -13,6 -5,0 -10,-2 -13,-6 -4,-4 -6,-8 -6,-13 0,-5 2,-10 5,-13 4,-3 8,-5 14,-5 5,0 9,2 13,5 4,4 5,8 5,13z"/>
   <path class="fil1" d="M481 254l-6 0c-1,-12 0,-21 1,-27 2,-6 5,-14 11,-24 6,-10 10,-19 12,-25 1,-6 2,-14 2,-23 0,-14 -3,-25 -8,-31 -6,-7 -13,-10 -20,-10 -6,0 -11,1 -15,4 -3,3 -5,5 -5,8 0,1 1,4 3,8 5,8 7,15 7,21 0,5 -2,9 -5,13 -4,3 -8,5 -14,5 -6,0 -11,-2 -15,-6 -5,-4 -7,-10 -7,-17 0,-13 6,-24 17,-33 11,-10 27,-15 47,-15 21,0 37,5 48,15 11,10 17,22 17,36 0,10 -3,20 -9,28 -5,9 -16,18 -33,29 -11,7 -18,13 -22,19 -3,5 -5,14 -6,25zm-1 23c7,0 13,3 18,8 5,5 8,11 8,18 0,7 -3,13 -8,18 -5,5 -11,8 -18,8 -8,0 -14,-3 -19,-8 -5,-5 -8,-11 -8,-18 0,-7 3,-13 8,-18 5,-5 11,-8 19,-8z"/>
   <path class="fil1" d="M23 689l-6 0c0,-1 -1,-3 -1,-4 0,-2 0,-3 0,-5 -1,-2 -2,-11 -3,-25l-1 -9 0 -2c0,0 0,-1 0,-3 3,-1 7,-2 13,-3 14,0 24,-2 29,-3 7,-3 12,-7 16,-12 3,-5 5,-10 5,-17 0,-12 -5,-22 -13,-31 -8,-9 -16,-13 -25,-13 -3,0 -8,0 -15,2 -6,2 -9,2 -11,2 -3,0 -6,-1 -8,-3 -2,-1 -3,-4 -3,-7 0,-4 1,-6 3,-8 4,-3 9,-4 16,-4 6,0 13,1 21,4 7,3 16,9 25,19 6,6 11,14 15,23 3,9 5,18 5,26 0,7 -1,13 -4,19 -3,6 -6,11 -10,14 -3,3 -7,5 -12,7 -3,1 -9,2 -20,3 -5,1 -8,2 -10,4 -2,1 -3,3 -4,5 -1,1 -1,4 -1,10 -1,6 -1,9 -1,11zm-17 35c0,-4 1,-8 4,-10 3,-4 7,-5 11,-5 4,0 7,1 10,4 3,3 4,7 4,11 0,5 -1,8 -4,11 -3,2 -6,4 -11,4 -3,0 -7,-2 -9,-5 -3,-3 -5,-6 -5,-10z"/>
   <path class="fil1" d="M741 446c0,-5 1,-9 5,-13 3,-3 7,-5 12,-5 5,0 9,2 12,5 4,4 6,8 6,13 0,5 -2,9 -6,12 -3,4 -7,5 -12,5 -5,0 -9,-1 -12,-5 -4,-3 -5,-7 -5,-12zm-29 -174c9,-4 18,-7 26,-9 8,-2 16,-3 24,-3 19,0 34,5 46,14 11,9 16,22 16,38 0,16 -4,30 -14,40 -10,10 -24,18 -44,22l0 33 -16 0 0 -43c15,-3 27,-10 35,-19 8,-8 12,-20 12,-33 0,-12 -3,-22 -10,-29 -6,-7 -15,-10 -26,-10 -10,0 -18,3 -25,9 -6,5 -10,14 -12,24l-12 0 0 -34z"/>
  </g>
 </g>
</svg>
