<?xml version="1.0" encoding="UTF-8"?>
<!DOCTYPE svg PUBLIC "-//W3C//DTD SVG 1.1//EN" "http://www.w3.org/Graphics/SVG/1.1/DTD/svg11.dtd">
<!-- Creator: CorelDRAW X7 -->
<svg xmlns="http://www.w3.org/2000/svg" xml:space="preserve" width="1000px" height="1000px" version="1.1" style="shape-rendering:geometricPrecision; text-rendering:geometricPrecision; image-rendering:optimizeQuality; fill-rule:evenodd; clip-rule:evenodd"
viewBox="0 0 1000 1000"
 xmlns:xlink="http://www.w3.org/1999/xlink">
 <defs>
  <style type="text/css">
   <![CDATA[
    .fil1 {fill:#FEFEFE}
    .fil3 {fill:#0D6EFD}
    .fil0 {fill:#BB0000}
    .fil2 {fill:#F8F9FA}
   ]]>
  </style>
 </defs>
 <g id="Слой_x0020_1">
  <metadata id="CorelCorpID_0Corel-Layer"/>
  <g id="_2136290940704">
   <rect class="fil0" x="495" width="149" height="105"/>
   <path class="fil0" d="M501 129l-386 211 0 51 784 0 -1 -15 1 -36 -398 -211zm-215 322c12,-2 21,-12 21,-25l0 -2 -21 0 -106 0 -21 0 0 2c0,13 9,23 21,25l0 436c-12,2 -21,13 -21,25l0 2 21 0 106 0 21 0 0 -2c0,-12 -9,-23 -21,-25l0 -436zm181 0c11,-2 21,-12 21,-25l0 -2 -21 0 -107 0 -21 0 0 2c0,13 9,23 21,25l0 436c-12,2 -21,13 -21,25l0 2 21 0 107 0 21 0 0 -2c0,-12 -10,-23 -21,-25l0 -436zm180 0c12,-2 21,-12 21,-25l0 -2 -21 0 -106 0 -21 0 0 2c0,13 9,23 21,25l0 436c-12,2 -21,13 -21,25l0 2 21 0 106 0 21 0 0 -2c0,-12 -9,-23 -21,-25l0 -436zm181 0c11,-2 21,-12 21,-25l0 -2 -21 0 -107 0 -21 0 0 2c0,13 9,23 21,25l0 436c-12,2 -21,13 -21,25l0 2 21 0 107 0 21 0 0 -2c0,-12 -10,-23 -21,-25l0 -436zm71 548l0 -28 -33 0 0 -23 -719 0 0 23 -32 0 0 28 784 0z"/>
   <path class="fil1" d="M597 258l7 11c2,4 4,7 6,10 1,2 2,4 3,6 2,3 3,3 1,4l-54 0 3 -7c2,-5 13,-23 17,-26l8 -13 2 4 7 11zm-150 91c-4,3 -7,7 -4,11l58 1c13,0 46,1 56,0l2 -7c-10,-6 -10,-13 -16,-16 -7,-2 -25,0 -34,-1l1 -105 7 -5c7,-5 18,-11 30,-10 12,0 29,12 33,17 3,5 -3,11 -5,16l-23 36c-3,5 -2,1 -6,4 3,14 26,20 47,18 12,0 16,-2 26,-5l6 -5c4,-3 4,-3 5,-8 -7,-4 -2,2 -8,-6 -3,-5 -22,-38 -26,-39 0,-4 -1,-4 -2,-7 -4,-10 3,-3 -7,-12 -2,-3 -1,-2 -5,-5 -3,-3 -4,-3 -8,-6 -7,-3 -8,-5 -17,-7 -16,-5 -29,0 -42,7l-14 9c-10,-2 -14,-9 -22,-11 -3,-4 -13,-6 -20,-7 -14,0 -19,3 -29,7 -5,3 -11,6 -14,9l-2 2c-1,1 -1,1 -2,2 -3,2 0,0 -2,1 -4,6 -1,7 -4,13 -2,3 -5,7 -7,11 -3,5 -10,16 -13,21 -3,3 -5,6 -7,10 0,1 -2,4 -2,5 -2,2 -1,1 -3,1l-3 2c0,0 0,0 -1,0 1,2 1,3 2,5 2,4 2,2 3,3 11,15 76,16 79,-8 -6,-4 -4,0 -9,-8l-26 -43c-1,-5 3,-7 7,-9 11,-7 1,-5 24,-13 10,-1 13,1 21,3 3,2 8,4 10,6 3,2 8,5 10,6l0 105 -1 0c-7,0 -24,-1 -30,0 -9,2 -9,8 -13,12zm-48 -85l13 -21 6 9c2,1 9,13 11,17 3,6 11,14 11,20l-55 0 14 -25z"/>
   <rect class="fil2" x="495" y="4" width="145.077" height="33.5976"/>
   <rect class="fil0" x="495" y="72" width="145.077" height="33.5976"/>
   <rect class="fil3" x="495" y="38" width="145.077" height="33.5976"/>
   <rect class="fil0" x="495" y="4" width="12.2162" height="172.568"/>
  </g>
 </g>
</svg>
